0
SECTION
2
HEADER
9
$INSUNITS
70
4
9
$ACADVER
1
AC1014
9
$HANDSEED
5
FFFF
0
ENDSEC
0
SECTION
2
TABLES
0
TABLE
2
VPORT
5
8
100
AcDbSymbolTable
0
ENDTAB
0
TABLE
2
LTYPE
5
5
100
AcDbSymbolTable
0
LTYPE
5
14
100
AcDbSymbolTableRecord
100
AcDbLinetypeTableRecord
2
BYBLOCK
70
0
0
LTYPE
5
15
100
AcDbSymbolTableRecord
100
AcDbLinetypeTableRecord
2
BYLAYER
70
0
0
ENDTAB
0
TABLE
2
LAYER
5
2
100
AcDbSymbolTable
70
2
0
LAYER
5
50
100
AcDbSymbolTableRecord
100
AcDbLayerTableRecord
2
0
70
0
6
CONTINUOUS
0
ENDTAB
0
TABLE
2
STYLE
5
3
100
AcDbSymbolTable
70
1
0
STYLE
5
11
100
AcDbSymbolTableRecord
100
AcDbTextStyleTableRecord
2
STANDARD
70
0
0
ENDTAB
0
TABLE
2
VIEW
5
6
100
AcDbSymbolTable
70
0
0
ENDTAB
0
TABLE
2
UCS
5
7
100
AcDbSymbolTable
70
0
0
ENDTAB
0
TABLE
2
APPID
5
9
100
AcDbSymbolTable
70
2
0
APPID
5
12
100
AcDbSymbolTableRecord
100
AcDbRegAppTableRecord
2
ACAD
70
0
0
ENDTAB
0
TABLE
2
DIMSTYLE
5
A
100
AcDbSymbolTable
70
1
0
ENDTAB
0
TABLE
2
BLOCK_RECORD
5
1
100
AcDbSymbolTable
70
1
0
BLOCK_RECORD
5
1F
100
AcDbSymbolTableRecord
100
AcDbBlockTableRecord
2
*MODEL_SPACE
0
BLOCK_RECORD
5
1B
100
AcDbSymbolTableRecord
100
AcDbBlockTableRecord
2
*PAPER_SPACE
0
ENDTAB
0
ENDSEC
0
SECTION
2
BLOCKS
0
BLOCK
5
20
100
AcDbEntity
100
AcDbBlockBegin
2
*MODEL_SPACE
0
ENDBLK
5
21
100
AcDbEntity
100
AcDbBlockEnd
0
BLOCK
5
1C
100
AcDbEntity
100
AcDbBlockBegin
2
*PAPER_SPACE
0
ENDBLK
5
1D
100
AcDbEntity
100
AcDbBlockEnd
0
ENDSEC
0
SECTION
2
ENTITIES
0
LINE
5
100
100
AcDbEntity
8
0
100
AcDbLine
10
-30.084111807044813
20
0.3769180865107008
30
0
11
-50.190693998916409
21
0.62336615097006165
31
0
0
LINE
5
101
100
AcDbEntity
8
0
100
AcDbLine
10
-50.190693998916409
20
0.62336615097006165
30
0
11
-70.185098381538111
21
0.86843924261200967
31
0
0
LINE
5
102
100
AcDbEntity
8
0
100
AcDbLine
10
-70.185098381538111
20
0.86843924261200967
30
0
11
-90.179677839100961
21
1.1135144801621966
31
0
0
LINE
5
103
100
AcDbEntity
8
0
100
AcDbLine
10
-90.179677839100961
20
1.1135144801621966
30
0
11
-110.1697053481937
21
1.3585339240981691
31
0
0
LINE
5
104
100
AcDbEntity
8
0
100
AcDbLine
10
-110.1697053481937
20
1.3585339240981691
30
0
11
-130.16656077999164
21
1.6036370584554636
31
0
0
LINE
5
105
100
AcDbEntity
8
0
100
AcDbLine
10
-130.16656077999164
20
1.6036370584554636
30
0
11
-150.16481681131884
21
1.8487573600786698
31
0
0
LINE
5
106
100
AcDbEntity
8
0
100
AcDbLine
10
-150.16481681131884
20
1.8487573600786698
30
0
11
-170.16587404170457
21
2.0939119962337003
31
0
0
LINE
5
107
100
AcDbEntity
8
0
100
AcDbLine
10
-170.16587404170457
20
2.0939119962337003
30
0
11
-190.16500544773766
21
2.3390430273981035
31
0
0
LINE
5
108
100
AcDbEntity
8
0
100
AcDbLine
10
-190.16500544773766
20
2.3390430273981035
30
0
11
-210.30018727337517
21
2.5858416399674615
31
0
0
LINE
5
109
100
AcDbEntity
8
0
100
AcDbLine
10
-210.30018727337517
20
2.5858416399674615
30
0
11
-230.17359768133204
21
2.8294316983130088
31
0
0
LINE
5
110
100
AcDbEntity
8
0
100
AcDbLine
10
-230.17359768133204
20
2.8294316983130088
30
0
11
-250.08579314278597
21
3.0734971483125477
31
0
0
LINE
5
111
100
AcDbEntity
8
0
100
AcDbLine
10
-250.08579314278597
20
3.0734971483125477
30
0
11
-270.18586648869081
21
3.3198654333009383
31
0
0
LINE
5
112
100
AcDbEntity
8
0
100
AcDbLine
10
-270.18586648869081
20
3.3198654333009383
30
0
11
-290.17640647333212
21
3.5648911586926997
31
0
0
LINE
5
113
100
AcDbEntity
8
0
100
AcDbLine
10
-290.17640647333212
20
3.5648911586926997
30
0
11
-289.86827878616026
21
30.963158573410698
31
0
0
LINE
5
114
100
AcDbEntity
8
0
100
AcDbLine
10
-289.86827878616026
20
30.963158573410698
30
0
11
-289.16768189160518
21
93.259219155050559
31
0
0
LINE
5
115
100
AcDbEntity
8
0
100
AcDbLine
10
-270.18586648869081
20
3.3198654333009383
30
0
11
-269.99589595823625
21
18.818701234662242
31
0
0
LINE
5
116
100
AcDbEntity
8
0
100
AcDbLine
10
-269.99589595823625
20
18.818701234662242
30
0
11
-268.99211618764059
21
100.71254975927454
31
0
0
LINE
5
117
100
AcDbEntity
8
0
100
AcDbLine
10
-250.08579314278597
20
3.0734971483125477
30
0
11
-250
21
10.072971381185397
31
0
0
LINE
5
118
100
AcDbEntity
8
0
100
AcDbLine
10
-250
20
10.072971381185397
30
0
11
-248.85772558462128
21
103.26597116743528
31
0
0
LINE
5
119
100
AcDbEntity
8
0
100
AcDbLine
10
-230.17359768133204
20
2.8294316983130088
30
0
11
-230.13682919156662
21
5.8292063695442273
31
0
0
LINE
5
120
100
AcDbEntity
8
0
100
AcDbLine
10
-230.13682919156662
20
5.8292063695442273
30
0
11
-228.92469464563368
21
104.72177803113343
31
0
0
LINE
5
121
100
AcDbEntity
8
0
100
AcDbLine
10
-210.30018727337517
20
2.5858416399674615
30
0
11
-209.06721724990854
21
103.17828561525434
31
0
0
LINE
5
122
100
AcDbEntity
8
0
100
AcDbLine
10
-190.16500544773766
20
2.3390430273981035
30
0
11
-190.14049312122734
21
4.3388928082189153
31
0
0
LINE
5
123
100
AcDbEntity
8
0
100
AcDbLine
10
-190.14049312122734
20
4.3388928082189153
30
0
11
-188.97615761198946
21
99.331757397207539
31
0
0
LINE
5
124
100
AcDbEntity
8
0
100
AcDbLine
10
-170.16587404170457
20
2.0939119962337003
30
0
11
-170.09846514380138
21
7.5934988934909375
31
0
0
LINE
5
125
100
AcDbEntity
8
0
100
AcDbLine
10
-170.09846514380138
20
7.5934988934909375
30
0
11
-169.01992277734936
21
95.586889249606699
31
0
0
LINE
5
126
100
AcDbEntity
8
0
100
AcDbLine
10
-150.16481681131884
20
1.8487573600786698
30
0
11
-150.05941380732469
21
10.448111417608166
31
0
0
LINE
5
127
100
AcDbEntity
8
0
100
AcDbLine
10
-150.05941380732469
20
10.448111417608166
30
0
11
-149.07034143263522
21
91.142050073728001
31
0
0
LINE
5
128
100
AcDbEntity
8
0
100
AcDbLine
10
-130.16656077999164
20
1.6036370584554636
30
0
11
-130.02316366990652
21
13.302758276257219
31
0
0
LINE
5
129
100
AcDbEntity
8
0
100
AcDbLine
10
-130.02316366990652
20
13.302758276257219
30
0
11
-129.10395142577136
21
88.297125057037704
31
0
0
LINE
5
130
100
AcDbEntity
8
0
100
AcDbLine
10
-110.1697053481937
20
1.3585339240981691
30
0
11
-109.98831413201768
21
16.157422302172186
31
0
0
LINE
5
131
100
AcDbEntity
8
0
100
AcDbLine
10
-109.98831413201768
20
16.157422302172186
30
0
11
-109.12915708783267
21
86.252157119941671
31
0
0
LINE
5
132
100
AcDbEntity
8
0
100
AcDbLine
10
-90.179677839100961
20
1.1135144801621966
30
0
11
-89.97499991274023
21
17.812260150015987
31
0
0
LINE
5
133
100
AcDbEntity
8
0
100
AcDbLine
10
-89.97499991274023
20
17.812260150015987
30
0
11
-89.098684239997993
21
89.306889814360062
31
0
0
LINE
5
134
100
AcDbEntity
8
0
100
AcDbLine
10
-70.185098381538111
20
0.86843924261200967
30
0
11
-69.964487442945668
21
18.867087269999324
31
0
0
LINE
5
135
100
AcDbEntity
8
0
100
AcDbLine
10
-69.964487442945668
20
18.867087269999324
30
0
11
-69.088171770203445
21
90.361716934343391
31
0
0
LINE
5
136
100
AcDbEntity
8
0
100
AcDbLine
10
-50.190693998916409
20
0.62336615097006165
30
0
11
-49.934540186884064
21
21.521796360547555
31
0
0
LINE
5
137
100
AcDbEntity
8
0
100
AcDbLine
10
-49.934540186884064
20
21.521796360547555
30
0
11
-49.096218620232783
21
89.916658864619379
31
0
0
LINE
5
138
100
AcDbEntity
8
0
100
AcDbLine
10
-30.084111807044813
20
0.3769180865107008
30
0
11
-29.968643225334013
21
26.176659693872534
31
0
0
LINE
5
139
100
AcDbEntity
8
0
100
AcDbLine
10
-30.084111807044813
20
0.3769180865107008
30
0
11
-20.074033585078155
21
0.33211726824301635
31
0
0
LINE
5
140
100
AcDbEntity
8
0
100
AcDbLine
10
-20.074033585078155
20
0.33211726824301635
30
0
11
-10.210375850010511
21
0.28797176529642843
31
0
0
LINE
5
141
100
AcDbEntity
8
0
100
AcDbLine
10
-10.210375850010511
20
0.28797176529642843
30
0
11
-9.5765375160162964
21
51.999972777644388
31
0
0
LINE
5
142
100
AcDbEntity
8
0
100
AcDbLine
10
-20.074033585078155
20
0.33211726824301635
30
0
11
-19.925177576252537
21
33.591784162074589
31
0
0
LINE
5
143
100
AcDbEntity
8
0
100
AcDbLine
10
-29.968643225334013
20
26.176659693872534
30
0
11
-29.203858638213546
21
88.571972855481931
31
0
0
LINE
5
144
100
AcDbEntity
8
0
100
AcDbLine
10
-19.925177576252537
20
33.591784162074589
30
0
11
-19.701401255107584
21
83.591283401147919
31
0
0
LINE
5
145
100
AcDbEntity
8
0
100
AcDbLine
10
-290.17640647333212
20
3.5648911586926997
30
0
11
-310.16060742365698
21
3.7896384219263428
31
0
0
LINE
5
146
100
AcDbEntity
8
0
100
AcDbLine
10
-310.16060742365698
20
3.7896384219263428
30
0
11
-309.47462972593848
21
64.785781206517527
31
0
0
SPLINE
5
147
100
AcDbEntity
8
0
100
AcDbSpline
70
1064
71
5
72
171
73
165
74
0
42
0.000000001
43
0.0000000001
44
0.0000000001
40
0
40
0
40
0
40
0
40
0
40
0
40
0.0062500000000000003
40
0.012500000000000001
40
0.018750000000000003
40
0.025000000000000001
40
0.03125
40
0.037499999999999999
40
0.043749999999999997
40
0.049999999999999996
40
0.056249999999999994
40
0.062499999999999993
40
0.068749999999999992
40
0.074999999999999997
40
0.081250000000000003
40
0.087500000000000008
40
0.093750000000000014
40
0.10000000000000002
40
0.10625000000000002
40
0.11250000000000003
40
0.11875000000000004
40
0.12500000000000003
40
0.13125000000000003
40
0.13750000000000004
40
0.14375000000000004
40
0.15000000000000005
40
0.15625000000000006
40
0.16250000000000006
40
0.16875000000000007
40
0.17500000000000007
40
0.18125000000000008
40
0.18750000000000008
40
0.19375000000000009
40
0.20000000000000009
40
0.2062500000000001
40
0.21250000000000011
40
0.21875000000000011
40
0.22500000000000012
40
0.23125000000000012
40
0.23750000000000013
40
0.24375000000000013
40
0.25000000000000011
40
0.25625000000000009
40
0.26250000000000007
40
0.26875000000000004
40
0.27500000000000002
40
0.28125
40
0.28749999999999998
40
0.29374999999999996
40
0.29999999999999993
40
0.30624999999999991
40
0.31249999999999989
40
0.31874999999999987
40
0.32499999999999984
40
0.33124999999999982
40
0.3374999999999998
40
0.34374999999999978
40
0.34999999999999976
40
0.35624999999999973
40
0.36249999999999971
40
0.36874999999999969
40
0.37499999999999967
40
0.38124999999999964
40
0.38749999999999962
40
0.3937499999999996
40
0.39999999999999958
40
0.40624999999999956
40
0.41249999999999953
40
0.41874999999999951
40
0.42499999999999949
40
0.43124999999999947
40
0.43749999999999944
40
0.44374999999999942
40
0.4499999999999994
40
0.45624999999999938
40
0.46249999999999936
40
0.46874999999999933
40
0.47499999999999931
40
0.48124999999999929
40
0.48749999999999927
40
0.49374999999999925
40
0.49999999999999922
40
0.5062499999999992
40
0.51249999999999918
40
0.51874999999999916
40
0.52499999999999913
40
0.53124999999999911
40
0.53749999999999909
40
0.54374999999999907
40
0.54999999999999905
40
0.55624999999999902
40
0.562499999999999
40
0.56874999999999898
40
0.57499999999999896
40
0.58124999999999893
40
0.58749999999999891
40
0.59374999999999889
40
0.59999999999999887
40
0.60624999999999885
40
0.61249999999999882
40
0.6187499999999988
40
0.62499999999999878
40
0.63124999999999876
40
0.63749999999999873
40
0.64374999999999871
40
0.64999999999999869
40
0.65624999999999867
40
0.66249999999999865
40
0.66874999999999862
40
0.6749999999999986
40
0.68124999999999858
40
0.68749999999999856
40
0.69374999999999853
40
0.69999999999999851
40
0.70624999999999849
40
0.71249999999999847
40
0.71874999999999845
40
0.72499999999999842
40
0.7312499999999984
40
0.73749999999999838
40
0.74374999999999836
40
0.74999999999999833
40
0.75624999999999831
40
0.76249999999999829
40
0.76874999999999827
40
0.77499999999999825
40
0.78124999999999822
40
0.7874999999999982
40
0.79374999999999818
40
0.79999999999999816
40
0.80624999999999813
40
0.81249999999999811
40
0.81874999999999809
40
0.82499999999999807
40
0.83124999999999805
40
0.83749999999999802
40
0.843749999999998
40
0.84999999999999798
40
0.85624999999999796
40
0.86249999999999793
40
0.86874999999999791
40
0.87499999999999789
40
0.88124999999999787
40
0.88749999999999785
40
0.89374999999999782
40
0.8999999999999978
40
0.90624999999999778
40
0.91249999999999776
40
0.91874999999999774
40
0.92499999999999771
40
0.93124999999999769
40
0.93749999999999767
40
0.94374999999999765
40
0.94999999999999762
40
0.9562499999999976
40
0.96249999999999758
40
0.96874999999999756
40
0.97499999999999754
40
0.98124999999999751
40
0.98749999999999749
40
0.99374999999999747
40
1
40
1
40
1
40
1
40
1
40
1
10
-309.47462972593848
20
64.785781206517527
30
0
10
-309.52493659242003
20
63.649678386473823
30
0
10
-309.49746067195497
20
61.363688492602442
30
0
10
-309.07051316948912
20
57.908855643986847
30
0
10
-307.75536616331635
20
53.316387691112404
30
0
10
-305.04905181205584
20
47.767273508939283
30
0
10
-301.53726888194728
20
42.567449761732348
30
0
10
-297.512890751795
20
37.850265252088846
30
0
10
-293.26361328374117
20
33.709895758274008
30
0
10
-289.03300705393787
20
30.188001934887087
30
0
10
-284.9763512561546
20
27.257115202888503
30
0
10
-281.13162284496718
20
24.8135219443745
30
0
10
-277.45912771848998
20
22.71335981221771
30
0
10
-273.87142758174252
20
20.802476981262853
30
0
10
-270.26738523532731
20
18.949204480116762
30
0
10
-266.56362518148524
20
17.074755894206955
30
0
10
-262.72933177395953
20
15.187716078723948
30
0
10
-258.77385572430796
20
13.35470295264281
30
0
10
-254.73151700076625
20
11.66744064724031
30
0
10
-250.64710854041368
20
10.210124344705376
30
0
10
-246.56182427187375
20
9.0289712331369838
30
0
10
-242.49712256034348
20
8.0947573160527888
30
0
10
-238.45744889215376
20
7.3261073517175559
30
0
10
-234.43629061107831
20
6.6232516251264029
30
0
10
-230.42110966960112
20
5.8985928384381019
30
0
10
-226.39863937379982
20
5.1075398257771329
30
0
10
-222.36030959947226
20
4.282138082718844
30
0
10
-218.30191458506388
20
3.5051238417781794
30
0
10
-214.22283946536595
20
2.879581184340434
30
0
10
-210.12544706038005
20
2.5004765819792447
30
0
10
-206.01440480308094
20
2.424778357618453
30
0
10
-201.89601890071339
20
2.6439143335705779
30
0
10
-197.77711847718027
20
3.104832689882373
30
0
10
-193.6639380474553
20
3.7295515953443341
30
0
10
-189.56104688726001
20
4.4347617307191669
30
0
10
-185.47014968799388
20
5.1525751581219232
30
0
10
-181.38925897261265
20
5.8473464796889987
30
0
10
-177.31426031140887
20
6.5060462688379825
30
0
10
-173.24025740868709
20
7.1313666305995369
30
0
10
-169.16292354022272
20
7.7340605994650353
30
0
10
-165.08003390119046
20
8.3249472059931069
30
0
10
-160.99235570205985
20
8.9091076314025859
30
0
10
-156.9022471368223
20
9.488563519090361
30
0
10
-152.81257532310664
20
10.063648091268494
30
0
10
-148.72561400164685
20
10.634734684134994
30
0
10
-144.64170064084306
20
11.204184389186064
30
0
10
-140.55881545206984
20
11.776975552906993
30
0
10
-136.47411768253787
20
12.358346649252157
30
0
10
-132.38516673217183
20
12.95196715441697
30
0
10
-128.2910731293598
20
13.558107801659158
30
0
10
-124.19415196859811
20
14.171301485015546
30
0
10
-120.09967351315834
20
14.780061938699392
30
0
10
-116.01309355121225
20
15.369528232868335
30
0
10
-111.93768380760248
20
15.923397381575757
30
0
10
-107.87247615388847
20
16.426122344853269
30
0
10
-103.80890740543205
20
16.865052634688837
30
0
10
-99.7326797677472
20
17.232343054359756
30
0
10
-95.630129498799121
20
17.5264207240043
30
0
10
-91.493851108328798
20
17.753809127015167
30
0
10
-87.327514365807048
20
17.930304835293292
30
0
10
-83.153808300578419
20
18.083689253316923
30
0
10
-79.007597181574226
20
18.249698647861983
30
0
10
-74.92133785374952
20
18.464486239205215
30
0
10
-70.911932721199832
20
18.757782527052022
30
0
10
-66.969108990554219
20
19.146617495195137
30
0
10
-63.037693040394423
20
19.626613375978355
30
0
10
-59.038493858654221
20
20.178823759514991
30
0
10
-54.900346126519906
20
20.781169389615556
30
0
10
-50.589681977370304
20
21.41867121311385
30
0
10
-46.138290937541278
20
22.093424961096236
30
0
10
-41.679383217671472
20
22.836698406043652
30
0
10
-37.401801850107923
20
23.699163232585192
30
0
10
-33.492264901472936
20
24.737885628607298
30
0
10
-30.080443644732107
20
26.004129933081384
30
0
10
-27.185988618337188
20
27.531576867950132
30
0
10
-24.656256844572908
20
29.322339120484088
30
0
10
-22.259412321788837
20
31.369547775329139
30
0
10
-19.787471009851906
20
33.682009640117478
30
0
10
-17.15958835210246
20
36.309559951168666
30
0
10
-14.514677940756521
20
39.36415972973078
30
0
10
-12.119795896696207
20
42.972671285446737
30
0
10
-10.288798147441984
20
47.233194522782384
30
0
10
-9.2982297720725136
20
52.170867106869608
30
0
10
-9.3017998849874459
20
57.691977996232069
30
0
10
-10.252740915271437
20
63.544128594324462
30
0
10
-11.970741224453844
20
69.381529314042083
30
0
10
-14.202078780497017
20
74.825592660445736
30
0
10
-16.680907913476062
20
79.525885968587858
30
0
10
-19.193214812775867
20
83.224121345392177
30
0
10
-21.632214036241784
20
85.809391533575905
30
0
10
-24.07668481348508
20
87.396577140322634
30
0
10
-26.720056731054189
20
88.253910060215617
30
0
10
-29.767155033920663
20
88.697114435330221
30
0
10
-33.331431887081486
20
88.985699992582639
30
0
10
-37.362826404476102
20
89.245436112169017
30
0
10
-41.717281181496084
20
89.516160477189985
30
0
10
-46.206066888953821
20
89.781104416810606
30
0
10
-50.649270272873736
20
90.001257385494284
30
0
10
-54.936448020203663
20
90.152835934170682
30
0
10
-59.054196048753845
20
90.245783090053834
30
0
10
-63.046278598043514
20
90.302738258156239
30
0
10
-66.98730290101021
20
90.345627518161308
30
0
10
-70.953365100786399
20
90.381363024057393
30
0
10
-74.988187391468657
20
90.382666309159973
30
0
10
-79.093290169409144
20
90.290862301778816
30
0
10
-83.246537435772566
20
90.043286697136239
30
0
10
-87.413687685772047
20
89.595758137474036
30
0
10
-91.561653020757376
20
88.943667726028309
30
0
10
-95.673854410228188
20
88.152088003217855
30
0
10
-99.751896848264735
20
87.344149084789592
30
0
10
-103.80753709564799
20
86.661824317867371
30
0
10
-107.85736096641854
20
86.233268149165269
30
0
10
-111.91681389951491
20
86.141183438644262
30
0
10
-115.9933170256749
20
86.381299492861743
30
0
10
-120.08629900021859
20
86.876582083514705
30
0
10
-124.1904216044849
20
87.515778487380928
30
0
10
-128.29782846461745
20
88.185248439288671
30
0
10
-132.40067311524217
20
88.80110125451003
30
0
10
-136.49385656161064
20
89.347659944821643
30
0
10
-140.57505528962619
20
89.862116271555948
30
0
10
-144.6440728117754
20
90.406646219184211
30
0
10
-148.70242714961859
20
91.04441381744607
30
0
10
-152.75283819089572
20
91.814936396209376
30
0
10
-156.798762331077
20
92.707065622119472
30
0
10
-160.84384866692236
20
93.674529796100842
30
0
10
-164.89139901687952
20
94.655538579165665
30
0
10
-168.94382311154433
20
95.590981861063909
30
0
10
-173.00210217582756
20
96.443065137845025
30
0
10
-177.06523031657497
20
97.214194080273515
30
0
10
-181.13112510356581
20
97.933090641282391
30
0
10
-185.19757508734929
20
98.640199605851791
30
0
10
-189.26314973973913
20
99.373571816898817
30
0
10
-193.3281804972211
20
100.15406555706829
30
0
10
-197.39555694704984
20
100.97219986056722
30
0
10
-201.46904329061346
20
101.7979403794658
30
0
10
-205.55168875989327
20
102.58923633919196
30
0
10
-209.64430422126739
20
103.30084764708035
30
0
10
-213.74367344927978
20
103.89346245086506
30
0
10
-217.84156405205496
20
104.34146774160773
30
0
10
-221.92866023925046
20
104.6311717910462
30
0
10
-225.99818422762939
20
104.76012618314246
30
0
10
-230.04918415615219
20
104.73592115101191
30
0
10
-234.09103519027406
20
104.57545716814828
30
0
10
-238.14404619076711
20
104.30321928237957
30
0
10
-242.22997253028126
20
103.94706729036997
30
0
10
-246.36374868512911
20
103.53446951116413
30
0
10
-250.54609232925841
20
103.08857688514894
30
0
10
-254.75248002311477
20
102.62432609693946
30
0
10
-258.93509993717947
20
102.14470453927019
30
0
10
-263.04339105374606
20
101.63767718231084
30
0
10
-267.04158646059733
20
101.07249820362549
30
0
10
-270.92435013278924
20
100.39723751894189
30
0
10
-274.74083779283001
20
99.533414901478181
30
0
10
-278.58554329049355
20
98.381112356906982
30
0
10
-282.55605605909864
20
96.834492219806748
30
0
10
-286.71780609739562
20
94.794933198858018
30
0
10
-291.07019574366086
20
92.184221213402594
30
0
10
-295.50180860462001
20
88.95995274528093
30
0
10
-299.78831827711127
20
85.121767949129307
30
0
10
-303.64642638842179
20
80.705437955897793
30
0
10
-306.77363983965125
20
75.780031528930209
30
0
10
-308.46976009242616
20
71.511079976945425
30
0
10
-309.19561947306585
20
68.180305412865465
30
0
10
-309.42432285945705
20
65.921884026561685
30
0
10
-309.47462972593848
20
64.785781206517527
30
0
0
ENDSEC
0
SECTION
2
OBJECTS
0
DICTIONARY
5
C
100
AcDbDictionary
3
ACAD_GROUP
350
D
3
ACAD_MLINESTYLE
350
17
0
DICTIONARY
5
D
100
AcDbDictionary
0
DICTIONARY
5
1A
330
C
100
AcDbDictionary
0
DICTIONARY
5
17
100
AcDbDictionary
0
ENDSEC
0
EOF
